<svg xmlns="http://www.w3.org/2000/svg" width="192" height="192" viewBox="0 0 192 192" role="img" aria-label="SeVende">
  <defs>
    <linearGradient id="g" x1="24" y1="20" x2="168" y2="172" gradientUnits="userSpaceOnUse">
      <stop stop-color="#6366F1"/>
      <stop offset="1" stop-color="#22D3EE"/>
    </linearGradient>
  </defs>
  <rect width="192" height="192" rx="42" fill="#020617"/>
  <rect x="17" y="17" width="158" height="158" rx="34" fill="none" stroke="url(#g)" stroke-width="4"/>
  <path d="M54 66c0-14 12-25 28-25h48v20H84c-6 0-10 3-10 7 0 5 4 7 11 9l22 5c21 5 31 16 31 34 0 21-17 35-43 35H52v-21h45c11 0 17-4 17-10 0-5-5-8-15-10l-20-5C62 101 54 89 54 66Z" fill="url(#g)"/>
</svg>